PathFileType	4	(X/Y/Z)
DataRate	CameraRate	NumFrames	NumMarkers	Units	OrigDataRate	OrigDataStartFrame	OrigNumFrames	
  100.0	  100.0	    4	     55	     mm	  100.0	      388	    516
Frame#	Time	LASI			RASI			LPSI			RPSI			RTH1			RTH2			RTH3			RLFC			RMFC			LTH1			LTH2			LTH3			LLFC			LMFC			RTB1			RTB2			RTB3			RLMAL			RMMAL			LTB1			LTB2			LTB3			LMMAL			LLMAL			RCAL			RTOE			RMT5			LCAL			LTOE			LMT5			LACR			RACR			CLAV			LASH			LPSH			RASH			RPSH			RUA1			RUA2			RUA3			RLEL			RMEL			LUA1			LUA2			LUA3			LLEL			LMEL			RFAsuperior			RFAradius			RFAulna			LFAsuperior			LFAradius			LFAulna			RHJC			LHJC			
		X1	Y1	Z1	X2	Y2	Z2	X3	Y3	Z3	X4	Y4	Z4	X5	Y5	Z5	X6	Y6	Z6	X7	Y7	Z7	X8	Y8	Z8	X9	Y9	Z9	X10	Y10	Z10	X11	Y11	Z11	X12	Y12	Z12	X13	Y13	Z13	X14	Y14	Z14	X15	Y15	Z15	X16	Y16	Z16	X17	Y17	Z17	X18	Y18	Z18	X19	Y19	Z19	X20	Y20	Z20	X21	Y21	Z21	X22	Y22	Z22	X23	Y23	Z23	X24	Y24	Z24	X25	Y25	Z25	X26	Y26	Z26	X27	Y27	Z27	X28	Y28	Z28	X29	Y29	Z29	X30	Y30	Z30	X31	Y31	Z31	X32	Y32	Z32	X33	Y33	Z33	X34	Y34	Z34	X35	Y35	Z35	X36	Y36	Z36	X37	Y37	Z37	X38	Y38	Z38	X39	Y39	Z39	X40	Y40	Z40	X41	Y41	Z41	X42	Y42	Z42	X43	Y43	Z43	X44	Y44	Z44	X45	Y45	Z45	X46	Y46	Z46	X47	Y47	Z47	X48	Y48	Z48	X49	Y49	Z49	X50	Y50	Z50	X51	Y51	Z51	X52	Y52	Z52	X53	Y53	Z53	X54	Y54	Z54	X55	Y55	Z55	

391	3.91000	540.49757	1031.04821	-384.77700	277.41216	1030.98070	-383.81986	450.25028	1080.08331	-577.85836	368.90223	1077.67123	-577.93835	217.66939	894.96256	-449.70499	234.14789	761.12287	-402.27561	244.82460	654.74409	-490.24097	246.66991	543.60801	-482.21850	374.37349	530.96131	-479.58862	594.87135	911.62010	-464.04446	581.53557	791.71057	-408.87793	568.56675	662.70863	-512.24525	565.03053	548.31912	-508.39674	445.56201	528.91112	-487.54856	290.40701	402.48194	-455.51397	232.18982	312.00929	-511.90114	289.32974	206.88284	-495.60260	246.28129	119.65327	-559.36091	333.59596	120.38273	-540.79847	523.41207	428.00751	-476.04697	582.41297	359.08251	-550.01877	526.10095	223.94590	-505.82193	476.53847	122.84154	-533.95781	558.75755	115.38328	-569.25653	296.31249	79.90161	-636.10125	286.95730	74.36805	-399.30724	198.11673	54.26190	-429.20945	500.08509	80.62094	-638.17964	543.27193	81.22095	-406.47574	618.41902	48.34346	-446.90926	562.22080	1565.81618	-488.90106	264.23546	1551.03849	-516.37553	391.41221	1509.00186	-420.79832	574.19132	1516.69121	-426.23389	582.36651	1521.14030	-564.53774	260.57142	1511.81546	-454.88059	254.91118	1497.64362	-597.01652	157.38400	1518.77393	-559.02318	105.20585	1433.59722	-581.06169	50.59090	1485.08507	-552.94552	-45.93446	1476.33358	-538.43238	-36.60424	1396.40324	-536.59119	675.94168	1540.75308	-526.53327	731.33254	1456.13009	-543.70124	785.49374	1508.47561	-513.89475	873.40570	1507.23867	-490.20308	882.16911	1429.04505	-492.55016	-84.38532	1482.15418	-467.57454	-78.52501	1458.10578	-265.58458	-145.28677	1454.30980	-285.80974	895.08248	1514.51712	-367.83371	854.31710	1471.71394	-223.48541	920.52977	1480.17481	-226.93886	303.65713	959.54900	-451.42786	495.50691	981.61273	-465.89813	
392	3.92000	540.48830	1031.04370	-384.84352	277.40197	1030.99923	-383.90568	450.30382	1080.08440	-577.94930	368.92048	1077.66867	-577.99265	217.65644	894.97841	-449.78340	234.14799	761.09141	-402.33918	244.84620	654.73719	-490.31325	246.73444	543.66185	-482.02179	374.38155	530.95600	-479.62190	594.89042	911.61081	-464.09764	581.53737	791.70968	-408.93819	568.57800	662.71706	-512.30648	565.05752	548.31151	-508.41891	445.54965	528.89295	-487.62655	290.36547	402.50093	-455.50941	232.18282	312.00653	-511.94012	289.32622	206.86688	-495.60097	246.29127	119.64306	-559.37892	333.61228	120.39108	-540.80502	523.41675	428.00380	-476.08097	582.43111	359.08110	-550.03897	526.09838	223.95509	-505.83030	476.54255	122.84934	-533.93169	558.77692	115.37810	-569.26620	296.34461	79.90119	-636.11891	286.97093	74.37291	-399.30570	198.09438	54.22071	-429.21636	500.10755	80.61585	-638.18583	543.27479	81.22387	-406.47646	618.41658	48.34850	-446.91364	562.18765	1566.04577	-489.32053	264.21430	1551.04605	-516.42753	391.41680	1509.01696	-420.89070	574.16800	1516.69236	-426.28033	582.36319	1521.15563	-564.59626	260.51040	1511.83180	-454.96654	254.93248	1497.66198	-597.11223	157.40255	1518.77445	-559.15283	105.19540	1433.58018	-581.12734	50.59568	1485.10608	-553.02205	-46.00975	1476.37162	-538.47122	-36.56851	1396.40530	-536.68476	675.93226	1540.76984	-526.57326	731.32367	1456.16074	-543.76304	785.47239	1508.51923	-513.99532	873.39004	1507.27774	-490.27632	882.16976	1429.08029	-492.64219	-84.37381	1482.16699	-467.68721	-78.50441	1458.12044	-265.71506	-145.28150	1454.31478	-285.92057	895.08629	1514.54304	-367.91486	854.31275	1471.77077	-223.55999	920.51890	1480.23396	-227.00202	303.65274	959.56611	-451.52166	495.50796	981.60627	-465.95314	
393	3.93000	540.48879	1031.03802	-384.85481	277.38152	1031.00627	-383.98208	450.35336	1080.08231	-578.03311	368.94528	1077.65857	-578.06145	217.64062	894.98548	-449.85444	234.16014	761.11732	-402.36754	244.79846	654.74297	-490.33947	246.72051	543.64360	-481.98253	374.39057	530.94910	-479.65111	594.92105	911.60287	-464.14882	581.53530	791.70502	-408.98925	568.57459	662.73358	-512.38852	565.08326	548.30760	-508.44967	445.54690	528.91617	-487.62418	290.31705	402.51876	-455.49021	232.10599	312.02551	-511.95781	289.32022	206.84900	-495.60584	246.29890	119.63560	-559.38544	333.61750	120.38421	-540.79095	523.41396	428.00674	-476.11338	582.45541	359.07749	-550.06497	526.09675	223.95369	-505.84039	476.54912	122.84515	-533.92106	558.78953	115.35946	-569.26433	296.37564	79.89184	-636.13287	286.98516	74.37777	-399.29952	198.12037	54.27940	-429.16798	500.13146	80.61237	-638.18092	543.28090	81.22749	-406.47760	618.42136	48.34539	-446.90500	562.16041	1566.18641	-489.60075	264.19380	1551.05460	-516.48474	391.42680	1509.03418	-420.99226	574.14595	1516.69857	-426.32849	582.36720	1521.17585	-564.66924	260.44976	1511.84114	-455.04823	254.96561	1497.67023	-597.21043	157.42173	1518.78154	-559.27251	105.18816	1433.55542	-581.18530	50.60316	1485.13747	-553.11170	-46.14859	1476.47618	-538.39820	-36.54342	1396.40101	-536.78596	675.93033	1540.78979	-526.60578	731.32438	1456.21380	-543.85790	785.45985	1508.54427	-514.02574	873.38100	1507.32005	-490.35257	882.16798	1429.12054	-492.72604	-84.35231	1482.17789	-467.80789	-78.48012	1458.12796	-265.85858	-145.25578	1454.30734	-286.04040	895.08539	1514.58407	-368.00362	854.32009	1471.82712	-223.63048	920.51499	1480.29532	-227.07546	303.65520	959.56900	-451.59452	495.51477	981.59964	-465.98306	
394	3.94000	540.48909	1031.03509	-384.85829	277.35365	1031.00662	-384.04269	450.39164	1080.08148	-578.11909	368.96943	1077.63947	-578.13033	217.62457	894.98494	-449.92670	234.16603	761.17715	-402.38145	244.76648	654.74483	-490.35809	246.66853	543.58741	-482.10560	374.39478	530.94533	-479.68140	594.95218	911.60368	-464.20194	581.52774	791.70133	-409.03133	568.56952	662.74602	-512.47925	565.09176	548.30719	-508.49498	445.55383	528.97109	-487.57259	290.30708	402.52682	-455.49740	232.05688	312.03315	-511.98018	289.31551	206.84080	-495.62279	246.30504	119.63062	-559.38837	333.61127	120.37145	-540.77482	523.40459	428.01402	-476.14159	582.48273	359.06515	-550.10206	526.09805	223.94258	-505.86062	476.55927	122.82893	-533.93582	558.79621	115.34125	-569.26535	296.40448	79.87513	-636.14424	286.99962	74.37974	-399.29827	198.16734	54.37841	-429.10658	500.15890	80.61632	-638.18653	543.28625	81.23343	-406.48366	618.43384	48.34040	-446.89020	562.15681	1566.16054	-489.62739	264.20094	1551.05281	-516.56789	391.43143	1509.04159	-421.08079	574.13338	1516.71921	-426.39239	582.37077	1521.19523	-564.74621	260.42495	1511.84048	-455.13245	254.99210	1497.66150	-597.29579	157.43785	1518.80091	-559.38642	105.17630	1433.53639	-581.23841	50.60939	1485.17839	-553.20226	-46.22324	1476.56112	-538.37319	-36.54567	1396.40198	-536.88166	675.92733	1540.81114	-526.64494	731.33574	1456.28185	-543.97461	785.46022	1508.52637	-513.92194	873.38377	1507.35912	-490.43453	882.16254	1429.16006	-492.79462	-84.33987	1482.18923	-467.91743	-78.45256	1458.13553	-265.98956	-145.23120	1454.31123	-286.15975	895.08059	1514.63498	-368.09230	854.34088	1471.88008	-223.69597	920.51891	1480.35325	-227.16495	303.65574	959.56612	-451.65727	495.51889	981.59253	-466.00422	
